<?xml version="1.0" encoding="utf-8"?>
<!-- Generator: Adobe Illustrator 18.1.1, SVG Export Plug-In . SVG Version: 6.00 Build 0)  -->
<svg xmlns="http://www.w3.org/2000/svg" xmlns:xlink="http://www.w3.org/1999/xlink" version="1.1" id="Layer_1" x="0px" y="0px" viewBox="0 0 50 50" enable-background="new 0 0 50 50" xml:space="preserve" fill="#ffffff">
<line fill="none" stroke="#ffffff" stroke-width="2" stroke-linejoin="round" stroke-miterlimit="10" x1="44" y1="5" x2="44" y2="17"/>
<line fill="none" stroke="#ffffff" stroke-width="2" stroke-linejoin="round" stroke-miterlimit="10" x1="34" y1="5" x2="34" y2="17"/>
<line fill="none" stroke="#ffffff" stroke-width="2" stroke-linejoin="round" stroke-miterlimit="10" x1="25" y1="5" x2="25" y2="17"/>
<line fill="none" stroke="#ffffff" stroke-width="4" stroke-linejoin="round" stroke-miterlimit="10" x1="39" y1="5" x2="39" y2="17"/>
<line fill="none" stroke="#ffffff" stroke-width="8" stroke-linejoin="round" stroke-miterlimit="10" x1="18" y1="5" x2="18" y2="17"/>
<line fill="none" stroke="#ffffff" stroke-width="3" stroke-linejoin="round" stroke-miterlimit="10" x1="29.5" y1="5" x2="29.5" y2="17"/>
<line fill="none" stroke="#ffffff" stroke-width="2" stroke-linejoin="round" stroke-miterlimit="10" x1="6" y1="5" x2="6" y2="17"/>
<line fill="none" stroke="#ffffff" stroke-width="3" stroke-linejoin="round" stroke-miterlimit="10" x1="10.5" y1="5" x2="10.5" y2="17"/>
<path d="M47,17H3c-1.7,0-3,1.3-3,3v22c0,1.7,1.3,3,3,3h44c1.7,0,3-1.3,3-3V20C50,18.3,48.7,17,47,17z M7,35H5V19h2V35z M12,35H9V19  h3V35z M22,35h-8V19h8V35z M26,35h-2V19h2V35z M31,35h-3V19h3V35z M35,35h-2V19h2V35z M41,35h-4V19h4V35z M45,35h-2V19h2V35z" fill="#ffffff"/>
</svg>
