<?xml version="1.0" encoding="utf-8"?>
<!-- Generator: Adobe Illustrator 19.2.0, SVG Export Plug-In . SVG Version: 6.00 Build 0)  -->
<svg xmlns="http://www.w3.org/2000/svg" xmlns:xlink="http://www.w3.org/1999/xlink" version="1.1" x="0px" y="0px" viewBox="0 0 50 50" style="enable-background:new 0 0 50 50" xml:space="preserve" fill="#ffffff">
<path d="M22.9,32.6c-0.1,1.1-0.6,2.1-1.4,2.9l-6,6c-0.9,1-2.2,1.5-3.5,1.5s-2.6-0.5-3.5-1.5c-1.9-1.9-1.9-5.1,0-7.1l6-6  c0.8-0.8,1.8-1.3,2.9-1.4l3.6-3.6c-1-0.2-2-0.4-3-0.4c-2.3,0-4.6,0.9-6.4,2.6l-6,6c-3.5,3.5-3.5,9.2,0,12.7C7.4,46.1,9.7,47,12,47  s4.6-0.9,6.4-2.6l6-6c2.5-2.5,3.2-6.1,2.1-9.3L22.9,32.6z" fill="#ffffff"/>
<path d="M44.4,5.6C42.6,3.9,40.3,3,38,3s-4.6,0.9-6.4,2.6l-6,6c-2.5,2.5-3.2,6.2-2.1,9.3l3.5-3.5c0.1-1.1,0.6-2.1,1.4-2.9l6-6  c1-1,2.3-1.5,3.6-1.5s2.6,0.5,3.5,1.5c1.9,1.9,1.9,5.1,0,7.1l-6,6c-0.8,0.8-1.8,1.3-2.9,1.4L29,26.6c1,0.2,2,0.4,3,0.4  c2.3,0,4.6-0.9,6.4-2.6l6-6C47.9,14.9,47.9,9.1,44.4,5.6z" fill="#ffffff"/>
<path d="M32.9,17.1c-0.4-0.4-0.9-0.6-1.4-0.6s-1,0.2-1.4,0.6l-13,13c-0.8,0.8-0.8,2.1,0,2.8c0.4,0.4,0.9,0.6,1.4,0.6s1-0.2,1.4-0.6  l13-13C33.7,19.1,33.7,17.9,32.9,17.1z" fill="#ffffff"/>
</svg>
