<?xml version="1.0" encoding="utf-8"?>
<!-- Generator: Adobe Illustrator 18.1.1, SVG Export Plug-In . SVG Version: 6.00 Build 0)  -->
<svg xmlns="http://www.w3.org/2000/svg" xmlns:xlink="http://www.w3.org/1999/xlink" version="1.1" id="Layer_1" x="0px" y="0px" viewBox="0 0 24 24" enable-background="new 0 0 24 24" xml:space="preserve" fill="#ffffff">
<g fill="#ffffff">
	<rect x="8" y="2" width="2" height="6" fill="#ffffff"/>
	<rect x="11" y="2" width="1" height="6" fill="#ffffff"/>
	<rect x="6" y="2" width="1" height="6" fill="#ffffff"/>
	<rect x="13" y="2" width="3" height="6" fill="#ffffff"/>
	<path d="M17,2v6c1.1,0,1,0,1,0V2H17z" fill="#ffffff"/>
</g>
<g fill="#ffffff">
	<rect x="8" y="10" width="2" height="4" fill="#ffffff"/>
	<rect x="11" y="10" width="1" height="4" fill="#ffffff"/>
	<rect x="6" y="10" width="1" height="4" fill="#ffffff"/>
	<rect x="13" y="10" width="3" height="4" fill="#ffffff"/>
	<path d="M17,10v4c1.1,0,1,0,1,0v-4H17z" fill="#ffffff"/>
</g>
<path fill="none" stroke="#ffffff" stroke-width="2" stroke-miterlimit="10" d="M18,21H6c-1.7,0-3-1.3-3-3v-7c0-1.7,1.3-3,3-3h12  c1.7,0,3,1.3,3,3v7C21,19.7,19.7,21,18,21z"/>
</svg>
