<?xml version="1.0" encoding="utf-8"?>
<!-- Generator: Adobe Illustrator 18.1.1, SVG Export Plug-In . SVG Version: 6.00 Build 0)  -->
<svg xmlns="http://www.w3.org/2000/svg" xmlns:xlink="http://www.w3.org/1999/xlink" version="1.1" id="Layer_1" x="0px" y="0px" viewBox="0 0 24 24" enable-background="new 0 0 24 24" xml:space="preserve" fill="#ffffff">
<line fill="none" stroke="#ffffff" stroke-width="2" stroke-linecap="round" stroke-miterlimit="10" x1="8" y1="12" x2="16" y2="12"/>
<path d="M19,7h-3c-1.6,0-3.1,0.8-4,2c-0.9-1.2-2.4-2-4-2H5c-2.8,0-5,2.2-5,5s2.2,5,5,5h3c1.6,0,3.1-0.8,4-2c0.9,1.2,2.4,2,4,2h3  c2.8,0,5-2.2,5-5S21.8,7,19,7z M19,15h-3c-0.9,0-1.7-0.4-2.2-1h-3.6c-0.5,0.6-1.3,1-2.2,1H5c-1.7,0-3-1.3-3-3s1.3-3,3-3h3  c0.9,0,1.7,0.4,2.2,1h3.6c0.5-0.6,1.3-1,2.2-1h3c1.7,0,3,1.3,3,3S20.7,15,19,15z" fill="#ffffff"/>
</svg>
