<?xml version="1.0" encoding="utf-8"?>
<!-- Generator: Adobe Illustrator 18.1.1, SVG Export Plug-In . SVG Version: 6.00 Build 0)  -->
<svg xmlns="http://www.w3.org/2000/svg" xmlns:xlink="http://www.w3.org/1999/xlink" version="1.1" id="Layer_1" x="0px" y="0px" viewBox="0 0 50 50" enable-background="new 0 0 50 50" xml:space="preserve" fill="#ffffff">
<path fill="none" stroke="#ffffff" stroke-width="2" stroke-linejoin="round" stroke-miterlimit="10" d="M47,44H3c-1.1,0-2-0.9-2-2  V20c0-1.1,0.9-2,2-2h44c1.1,0,2,0.9,2,2v22C49,43.1,48.1,44,47,44z"/>
<line fill="none" stroke="#ffffff" stroke-width="2" stroke-linejoin="round" stroke-miterlimit="10" x1="44" y1="5" x2="44" y2="18"/>
<line fill="none" stroke="#ffffff" stroke-width="2" stroke-linejoin="round" stroke-miterlimit="10" x1="34" y1="5" x2="34" y2="18"/>
<line fill="none" stroke="#ffffff" stroke-width="2" stroke-linejoin="round" stroke-miterlimit="10" x1="25" y1="5" x2="25" y2="18"/>
<line fill="none" stroke="#ffffff" stroke-width="4" stroke-linejoin="round" stroke-miterlimit="10" x1="39" y1="5" x2="39" y2="18"/>
<line fill="none" stroke="#ffffff" stroke-width="8" stroke-linejoin="round" stroke-miterlimit="10" x1="18" y1="5" x2="18" y2="18"/>
<line fill="none" stroke="#ffffff" stroke-width="3" stroke-linejoin="round" stroke-miterlimit="10" x1="29.5" y1="5" x2="29.5" y2="18"/>
<line fill="none" stroke="#ffffff" stroke-width="2" stroke-linejoin="round" stroke-miterlimit="10" x1="6" y1="5" x2="6" y2="18"/>
<line fill="none" stroke="#ffffff" stroke-width="3" stroke-linejoin="round" stroke-miterlimit="10" x1="10.5" y1="5" x2="10.5" y2="18"/>
<line fill="none" stroke="#ffffff" stroke-width="2" stroke-linejoin="round" stroke-miterlimit="10" x1="44" y1="21" x2="44" y2="35"/>
<line fill="none" stroke="#ffffff" stroke-width="2" stroke-linejoin="round" stroke-miterlimit="10" x1="34" y1="21" x2="34" y2="35"/>
<line fill="none" stroke="#ffffff" stroke-width="2" stroke-linejoin="round" stroke-miterlimit="10" x1="25" y1="21" x2="25" y2="35"/>
<line fill="none" stroke="#ffffff" stroke-width="4" stroke-linejoin="round" stroke-miterlimit="10" x1="39" y1="21" x2="39" y2="35"/>
<line fill="none" stroke="#ffffff" stroke-width="8" stroke-linejoin="round" stroke-miterlimit="10" x1="18" y1="21" x2="18" y2="35"/>
<line fill="none" stroke="#ffffff" stroke-width="3" stroke-linejoin="round" stroke-miterlimit="10" x1="29.5" y1="21" x2="29.5" y2="35"/>
<line fill="none" stroke="#ffffff" stroke-width="2" stroke-linejoin="round" stroke-miterlimit="10" x1="6" y1="21" x2="6" y2="35"/>
<line fill="none" stroke="#ffffff" stroke-width="3" stroke-linejoin="round" stroke-miterlimit="10" x1="10.5" y1="21" x2="10.5" y2="35"/>
</svg>
